<svg width="157" height="42" viewBox="0 0 157 42" fill="none" xmlns="http://www.w3.org/2000/svg">
<path d="M51.3719 11.3104V29.5H47.6241V11.3104H51.3719ZM58.6178 19.081V22.0043H50.3475V19.081H58.6178ZM59.4923 11.3104V14.2462H50.3475V11.3104H59.4923ZM65.239 15.9828V29.5H61.6285V15.9828H65.239ZM61.4037 12.4598C61.4037 11.9351 61.5869 11.502 61.9534 11.1605C62.3198 10.819 62.8112 10.6483 63.4275 10.6483C64.0355 10.6483 64.5227 10.819 64.8892 11.1605C65.264 11.502 65.4513 11.9351 65.4513 12.4598C65.4513 12.9845 65.264 13.4176 64.8892 13.759C64.5227 14.1005 64.0355 14.2712 63.4275 14.2712C62.8112 14.2712 62.3198 14.1005 61.9534 13.759C61.5869 13.4176 61.4037 12.9845 61.4037 12.4598ZM71.7352 18.8686V29.5H68.1373V15.9828H71.5104L71.7352 18.8686ZM71.2105 22.2666H70.2361C70.2361 21.2672 70.3652 20.3677 70.6234 19.5682C70.8816 18.7603 71.2439 18.0732 71.7103 17.5069C72.1767 16.9322 72.7305 16.495 73.3718 16.1951C74.0214 15.887 74.746 15.7329 75.5456 15.7329C76.1785 15.7329 76.7574 15.8245 77.2821 16.0077C77.8068 16.191 78.2565 16.4825 78.6313 16.8822C79.0144 17.282 79.3059 17.8109 79.5058 18.4688C79.714 19.1268 79.8181 19.9305 79.8181 20.8799V29.5H76.1952V20.8675C76.1952 20.2678 76.1119 19.8014 75.9453 19.4683C75.7788 19.1351 75.5331 18.9019 75.2082 18.7687C74.8918 18.6271 74.5003 18.5563 74.0339 18.5563C73.5509 18.5563 73.1303 18.6521 72.7721 18.8436C72.4223 19.0352 72.1308 19.3017 71.8976 19.6432C71.6728 19.9763 71.502 20.3677 71.3854 20.8175C71.2688 21.2672 71.2105 21.7503 71.2105 22.2666ZM92.8981 11.3104V29.5H89.1503V11.3104H92.8981ZM100.144 19.081V22.0043H91.8737V19.081H100.144ZM101.018 11.3104V14.2462H91.8737V11.3104H101.018ZM102.118 22.8788V22.6164C102.118 21.6253 102.259 20.7134 102.543 19.8805C102.826 19.0393 103.238 18.3106 103.779 17.6943C104.321 17.078 104.987 16.5991 105.778 16.2576C106.569 15.9078 107.477 15.7329 108.502 15.7329C109.526 15.7329 110.438 15.9078 111.238 16.2576C112.037 16.5991 112.708 17.078 113.249 17.6943C113.799 18.3106 114.215 19.0393 114.498 19.8805C114.781 20.7134 114.923 21.6253 114.923 22.6164V22.8788C114.923 23.8616 114.781 24.7735 114.498 25.6147C114.215 26.4476 113.799 27.1763 113.249 27.801C112.708 28.4173 112.041 28.8962 111.25 29.2377C110.459 29.5791 109.551 29.7499 108.527 29.7499C107.502 29.7499 106.59 29.5791 105.791 29.2377C104.999 28.8962 104.329 28.4173 103.779 27.801C103.238 27.1763 102.826 26.4476 102.543 25.6147C102.259 24.7735 102.118 23.8616 102.118 22.8788ZM105.716 22.6164V22.8788C105.716 23.4451 105.766 23.974 105.866 24.4654C105.966 24.9568 106.124 25.3899 106.34 25.7646C106.565 26.1311 106.857 26.4184 107.215 26.6266C107.573 26.8349 108.01 26.939 108.527 26.939C109.026 26.939 109.455 26.8349 109.813 26.6266C110.172 26.4184 110.459 26.1311 110.675 25.7646C110.892 25.3899 111.05 24.9568 111.15 24.4654C111.258 23.974 111.313 23.4451 111.313 22.8788V22.6164C111.313 22.0668 111.258 21.5504 111.15 21.0673C111.05 20.576 110.888 20.1429 110.663 19.7681C110.446 19.385 110.159 19.0851 109.801 18.8686C109.443 18.6521 109.01 18.5438 108.502 18.5438C107.994 18.5438 107.561 18.6521 107.202 18.8686C106.853 19.0851 106.565 19.385 106.34 19.7681C106.124 20.1429 105.966 20.576 105.866 21.0673C105.766 21.5504 105.716 22.0668 105.716 22.6164ZM122.718 26.939C123.16 26.939 123.551 26.8557 123.893 26.6891C124.234 26.5142 124.501 26.2727 124.692 25.9645C124.892 25.648 124.996 25.2774 125.005 24.8527H128.39C128.382 25.8021 128.128 26.6475 127.628 27.3887C127.128 28.1216 126.458 28.7005 125.617 29.1252C124.776 29.5416 123.835 29.7499 122.793 29.7499C121.744 29.7499 120.828 29.575 120.045 29.2252C119.27 28.8754 118.625 28.3923 118.109 27.776C117.592 27.1513 117.205 26.4268 116.947 25.6022C116.689 24.7694 116.56 23.8782 116.56 22.9288V22.5665C116.56 21.6087 116.689 20.7175 116.947 19.893C117.205 19.0602 117.592 18.3356 118.109 17.7193C118.625 17.0946 119.27 16.6074 120.045 16.2576C120.82 15.9078 121.727 15.7329 122.768 15.7329C123.876 15.7329 124.846 15.9453 125.679 16.37C126.52 16.7948 127.178 17.4028 127.653 18.194C128.136 18.9769 128.382 19.9055 128.39 20.9799H125.005C124.996 20.5301 124.901 20.122 124.717 19.7556C124.542 19.3891 124.284 19.0976 123.943 18.8811C123.61 18.6562 123.197 18.5438 122.706 18.5438C122.181 18.5438 121.752 18.6562 121.419 18.8811C121.086 19.0976 120.828 19.3975 120.645 19.7806C120.461 20.1554 120.332 20.5843 120.257 21.0673C120.191 21.5421 120.157 22.0418 120.157 22.5665V22.9288C120.157 23.4535 120.191 23.9573 120.257 24.4404C120.324 24.9235 120.449 25.3524 120.632 25.7272C120.824 26.1019 121.086 26.3976 121.419 26.6142C121.752 26.8307 122.185 26.939 122.718 26.939ZM138.472 26.2644V15.9828H142.07V29.5H138.684L138.472 26.2644ZM138.872 23.4909L139.934 23.466C139.934 24.3654 139.83 25.2025 139.621 25.977C139.413 26.7432 139.101 27.4095 138.684 27.9759C138.268 28.5339 137.743 28.9711 137.11 29.2876C136.477 29.5958 135.732 29.7499 134.874 29.7499C134.216 29.7499 133.608 29.6582 133.05 29.475C132.5 29.2835 132.026 28.9878 131.626 28.588C131.234 28.1799 130.926 27.6594 130.701 27.0264C130.485 26.3851 130.377 25.6147 130.377 24.7152V15.9828H133.975V24.7402C133.975 25.14 134.02 25.4773 134.112 25.7521C134.212 26.027 134.349 26.2519 134.524 26.4268C134.699 26.6017 134.903 26.7266 135.136 26.8015C135.378 26.8765 135.644 26.914 135.936 26.914C136.677 26.914 137.26 26.7641 137.685 26.4642C138.118 26.1644 138.422 25.7563 138.597 25.2399C138.78 24.7152 138.872 24.1322 138.872 23.4909ZM152.127 25.7646C152.127 25.5065 152.052 25.2733 151.902 25.065C151.752 24.8568 151.473 24.6653 151.065 24.4904C150.665 24.3071 150.086 24.1406 149.328 23.9907C148.645 23.8407 148.008 23.6534 147.417 23.4285C146.834 23.1953 146.326 22.9163 145.893 22.5915C145.468 22.2666 145.135 21.8835 144.893 21.4421C144.652 20.9924 144.531 20.4802 144.531 19.9055C144.531 19.3392 144.652 18.8061 144.893 18.3064C145.143 17.8067 145.497 17.3653 145.955 16.9822C146.422 16.5907 146.988 16.2867 147.654 16.0702C148.329 15.8453 149.087 15.7329 149.928 15.7329C151.102 15.7329 152.11 15.9203 152.951 16.2951C153.801 16.6699 154.45 17.1862 154.9 17.8442C155.358 18.4938 155.587 19.2351 155.587 20.0679H151.989C151.989 19.7181 151.914 19.4058 151.764 19.1309C151.623 18.8478 151.398 18.6271 151.09 18.4688C150.79 18.3023 150.398 18.219 149.915 18.219C149.516 18.219 149.17 18.2898 148.878 18.4313C148.587 18.5646 148.362 18.7478 148.204 18.981C148.054 19.2059 147.979 19.4558 147.979 19.7306C147.979 19.9388 148.021 20.1262 148.104 20.2928C148.196 20.451 148.341 20.5968 148.541 20.73C148.741 20.8633 148.999 20.9882 149.316 21.1048C149.641 21.2131 150.04 21.313 150.515 21.4046C151.489 21.6045 152.36 21.8669 153.126 22.1917C153.892 22.5082 154.5 22.9413 154.95 23.4909C155.4 24.0323 155.625 24.7444 155.625 25.6272C155.625 26.2269 155.491 26.7766 155.225 27.2763C154.958 27.776 154.575 28.2132 154.076 28.588C153.576 28.9545 152.976 29.2418 152.277 29.45C151.585 29.6499 150.807 29.7499 149.94 29.7499C148.683 29.7499 147.617 29.525 146.742 29.0752C145.876 28.6255 145.218 28.055 144.768 27.3637C144.327 26.6641 144.106 25.9479 144.106 25.215H147.517C147.533 25.7063 147.658 26.1019 147.892 26.4018C148.133 26.7016 148.437 26.9181 148.804 27.0514C149.178 27.1847 149.582 27.2513 150.015 27.2513C150.482 27.2513 150.869 27.1888 151.177 27.0639C151.485 26.9306 151.719 26.7557 151.877 26.5392C152.043 26.3143 152.127 26.0561 152.127 25.7646Z" fill="#E1E1E6"/>
<path d="M26.0225 20.5629V21.4607C26.0225 23.9438 28.0285 25.9638 30.5256 25.9638H36.0246V30.7194C36.0246 33.497 33.7661 35.7556 30.9745 35.7556H6.31275C3.52113 35.7556 1.26257 33.497 1.26257 30.7194V11.3043C1.26257 8.52668 3.52113 6.26813 6.31275 6.26813H30.9745C33.7661 6.26813 36.0246 8.52668 36.0246 11.3043V16.0599H30.5256C28.0285 16.0599 26.0225 18.0799 26.0225 20.5629Z" fill="#121214"/>
<path d="M37.736 17.3926V24.6311C37.736 25.3606 37.1468 25.9638 36.4033 25.9638H30.5255C28.0284 25.9638 26.0224 23.9438 26.0224 21.4608V20.563C26.0224 18.0799 28.0284 16.0599 30.5255 16.0599H36.4033C37.1468 16.0599 37.736 16.6631 37.736 17.3926Z" fill="#121214"/>
<path d="M37.2914 14.9699V11.3099C37.2914 7.8309 34.4605 5 30.98 5H6.31132C2.83231 5 0 7.8309 0 11.3099V30.7138C0 34.1928 2.83091 37.0237 6.31132 37.0237H30.9814C34.4605 37.0237 37.2928 34.1928 37.2928 30.7138V27.0538C38.286 26.6891 39 25.7436 39 24.627V17.3982C38.9986 16.2801 38.2846 15.3346 37.2914 14.9699ZM36.4735 17.3968V24.6256C36.4735 24.6634 36.4426 24.6943 36.4048 24.6943H30.5199C28.7341 24.6943 27.2808 23.241 27.2808 21.4552V20.5658C27.2808 18.78 28.7341 17.3266 30.5199 17.3266L36.4735 17.3968ZM30.9814 34.4987H6.31132C4.22391 34.4987 2.52509 32.8012 2.52509 30.7138V11.3099C2.52509 9.22251 4.22391 7.52509 6.31132 7.52509H30.9814C33.0688 7.52509 34.7677 9.22251 34.7677 11.3099V14.8044H30.5199C27.3411 14.8044 24.7557 17.3898 24.7557 20.5672V21.4566C24.7557 24.6354 27.3411 27.2194 30.5199 27.2194H34.7677V30.7138C34.7663 32.8012 33.0674 34.4987 30.9814 34.4987Z" fill="#F4B804"/>
</svg>
